<svg xmlns="http://www.w3.org/2000/svg" width="900" height="506" viewBox="0 0 900 506">
<polygon points="34.64,10.00 34.64,30.00 17.32,40.00 -0.00,30.00 0.00,10.00 17.32,0.00" fill="#18c0f1" />
<polygon points="69.28,10.00 69.28,30.00 51.96,40.00 34.64,30.00 34.64,10.00 51.96,0.00" fill="#1abcf5" />
<polygon points="103.92,10.00 103.92,30.00 86.60,40.00 69.28,30.00 69.28,10.00 86.60,0.00" fill="#1bb3fa" />
<polygon points="138.56,10.00 138.56,30.00 121.24,40.00 103.92,30.00 103.92,10.00 121.24,0.00" fill="#1baefc" />
<polygon points="173.21,10.00 173.21,30.00 155.88,40.00 138.56,30.00 138.56,10.00 155.88,0.00" fill="#1baefc" />
<polygon points="207.85,10.00 207.85,30.00 190.53,40.00 173.21,30.00 173.21,10.00 190.53,0.00" fill="#1caefc" />
<polygon points="242.49,10.00 242.49,30.00 225.17,40.00 207.85,30.00 207.85,10.00 225.17,0.00" fill="#1fb7f7" />
<polygon points="277.13,10.00 277.13,30.00 259.81,40.00 242.49,30.00 242.49,10.00 259.81,0.00" fill="#48c7d9" />
<polygon points="311.77,10.00 311.77,30.00 294.45,40.00 277.13,30.00 277.13,10.00 294.45,0.00" fill="#29cde2" />
<polygon points="346.41,10.00 346.41,30.00 329.09,40.00 311.77,30.00 311.77,10.00 329.09,0.00" fill="#2ed4dd" />
<polygon points="381.05,10.00 381.05,30.00 363.73,40.00 346.41,30.00 346.41,10.00 363.73,0.00" fill="#8dd0a4" />
<polygon points="415.69,10.00 415.69,30.00 398.37,40.00 381.05,30.00 381.05,10.00 398.37,0.00" fill="#f2be62" />
<polygon points="450.33,10.00 450.33,30.00 433.01,40.00 415.69,30.00 415.69,10.00 433.01,0.00" fill="#f3bc61" />
<polygon points="484.97,10.00 484.97,30.00 467.65,40.00 450.33,30.00 450.33,10.00 467.65,0.00" fill="#f0ad66" />
<polygon points="519.62,10.00 519.62,30.00 502.29,40.00 484.97,30.00 484.97,10.00 502.29,0.00" fill="#e57e75" />
<polygon points="554.26,10.00 554.26,30.00 536.94,40.00 519.62,30.00 519.62,10.00 536.94,0.00" fill="#f67574" />
<polygon points="588.90,10.00 588.90,30.00 571.58,40.00 554.26,30.00 554.26,10.00 571.58,0.00" fill="#b65f7e" />
<polygon points="623.54,10.00 623.54,30.00 606.22,40.00 588.90,30.00 588.90,10.00 606.22,0.00" fill="#9e6080" />
<polygon points="658.18,10.00 658.18,30.00 640.86,40.00 623.54,30.00 623.54,10.00 640.86,0.00" fill="#8b5b83" />
<polygon points="692.82,10.00 692.82,30.00 675.50,40.00 658.18,30.00 658.18,10.00 675.50,0.00" fill="#735685" />
<polygon points="727.46,10.00 727.46,30.00 710.14,40.00 692.82,30.00 692.82,10.00 710.14,0.00" fill="#725685" />
<polygon points="762.10,10.00 762.10,30.00 744.78,40.00 727.46,30.00 727.46,10.00 744.78,0.00" fill="#6f5686" />
<polygon points="796.74,10.00 796.74,30.00 779.42,40.00 762.10,30.00 762.10,10.00 779.42,0.00" fill="#3e6084" />
<polygon points="831.38,10.00 831.38,30.00 814.06,40.00 796.74,30.00 796.74,10.00 814.06,0.00" fill="#246485" />
<polygon points="866.03,10.00 866.03,30.00 848.70,40.00 831.38,30.00 831.38,10.00 848.70,0.00" fill="#1b6685" />
<polygon points="900.67,10.00 900.67,30.00 883.35,40.00 866.03,30.00 866.03,10.00 883.35,0.00" fill="#1b6785" />
<polygon points="935.31,10.00 935.31,30.00 917.99,40.00 900.67,30.00 900.67,10.00 917.99,0.00" fill="#000000" />
<polygon points="51.96,40.00 51.96,60.00 34.64,70.00 17.32,60.00 17.32,40.00 34.64,30.00" fill="#1ab7f7" />
<polygon points="86.60,40.00 86.60,60.00 69.28,70.00 51.96,60.00 51.96,40.00 69.28,30.00" fill="#1ab3fa" />
<polygon points="121.24,40.00 121.24,60.00 103.92,70.00 86.60,60.00 86.60,40.00 103.92,30.00" fill="#1caefd" />
<polygon points="155.88,40.00 155.88,60.00 138.56,70.00 121.24,60.00 121.24,40.00 138.56,30.00" fill="#1cadfb" />
<polygon points="190.53,40.00 190.53,60.00 173.21,70.00 155.88,60.00 155.88,40.00 173.21,30.00" fill="#1db1fb" />
<polygon points="225.17,40.00 225.17,60.00 207.85,70.00 190.53,60.00 190.53,40.00 207.85,30.00" fill="#31c3e7" />
<polygon points="259.81,40.00 259.81,60.00 242.49,70.00 225.17,60.00 225.17,40.00 242.49,30.00" fill="#40c7df" />
<polygon points="294.45,40.00 294.45,60.00 277.13,70.00 259.81,60.00 259.81,40.00 277.13,30.00" fill="#71cfc3" />
<polygon points="329.09,40.00 329.09,60.00 311.77,70.00 294.45,60.00 294.45,40.00 311.77,30.00" fill="#5cbec4" />
<polygon points="363.73,40.00 363.73,60.00 346.41,70.00 329.09,60.00 329.09,40.00 346.41,30.00" fill="#aba89e" />
<polygon points="398.37,40.00 398.37,60.00 381.05,70.00 363.73,60.00 363.73,40.00 381.05,30.00" fill="#afce9e" />
<polygon points="433.01,40.00 433.01,60.00 415.69,70.00 398.37,60.00 398.37,40.00 415.69,30.00" fill="#f2bb64" />
<polygon points="467.65,40.00 467.65,60.00 450.33,70.00 433.01,60.00 433.01,40.00 450.33,30.00" fill="#dd8574" />
<polygon points="502.29,40.00 502.29,60.00 484.97,70.00 467.65,60.00 467.65,40.00 484.97,30.00" fill="#c17878" />
<polygon points="536.94,40.00 536.94,60.00 519.62,70.00 502.29,60.00 502.29,40.00 519.62,30.00" fill="#bd677e" />
<polygon points="571.58,40.00 571.58,60.00 554.26,70.00 536.94,60.00 536.94,40.00 554.26,30.00" fill="#a75c82" />
<polygon points="606.22,40.00 606.22,60.00 588.90,70.00 571.58,60.00 571.58,40.00 588.90,30.00" fill="#855783" />
<polygon points="640.86,40.00 640.86,60.00 623.54,70.00 606.22,60.00 606.22,40.00 623.54,30.00" fill="#535e84" />
<polygon points="675.50,40.00 675.50,60.00 658.18,70.00 640.86,60.00 640.86,40.00 658.18,30.00" fill="#815f80" />
<polygon points="710.14,40.00 710.14,60.00 692.82,70.00 675.50,60.00 675.50,40.00 692.82,30.00" fill="#775883" />
<polygon points="744.78,40.00 744.78,60.00 727.46,70.00 710.14,60.00 710.14,40.00 727.46,30.00" fill="#4f5c85" />
<polygon points="779.42,40.00 779.42,60.00 762.10,70.00 744.78,60.00 744.78,40.00 762.10,30.00" fill="#5a5a85" />
<polygon points="814.06,40.00 814.06,60.00 796.74,70.00 779.42,60.00 779.42,40.00 796.74,30.00" fill="#2d6385" />
<polygon points="848.70,40.00 848.70,60.00 831.38,70.00 814.06,60.00 814.06,40.00 831.38,30.00" fill="#1a6685" />
<polygon points="883.35,40.00 883.35,60.00 866.03,70.00 848.70,60.00 848.70,40.00 866.03,30.00" fill="#1a6785" />
<polygon points="917.99,40.00 917.99,60.00 900.67,70.00 883.35,60.00 883.35,40.00 900.67,30.00" fill="#1a6785" />
<polygon points="34.64,70.00 34.64,90.00 17.32,100.00 -0.00,90.00 0.00,70.00 17.32,60.00" fill="#1cb7f7" />
<polygon points="69.28,70.00 69.28,90.00 51.96,100.00 34.64,90.00 34.64,70.00 51.96,60.00" fill="#1bb5fa" />
<polygon points="103.92,70.00 103.92,90.00 86.60,100.00 69.28,90.00 69.28,70.00 86.60,60.00" fill="#1bb1fb" />
<polygon points="138.56,70.00 138.56,90.00 121.24,100.00 103.92,90.00 103.92,70.00 121.24,60.00" fill="#33baea" />
<polygon points="173.21,70.00 173.21,90.00 155.88,100.00 138.56,90.00 138.56,70.00 155.88,60.00" fill="#28b5f1" />
<polygon points="207.85,70.00 207.85,90.00 190.53,100.00 173.21,90.00 173.21,70.00 190.53,60.00" fill="#27beef" />
<polygon points="242.49,70.00 242.49,90.00 225.17,100.00 207.85,90.00 207.85,70.00 225.17,60.00" fill="#4bdbd1" />
<polygon points="277.13,70.00 277.13,90.00 259.81,100.00 242.49,90.00 242.49,70.00 259.81,60.00" fill="#4bd6d1" />
<polygon points="311.77,70.00 311.77,90.00 294.45,100.00 277.13,90.00 277.13,70.00 294.45,60.00" fill="#4bc9cd" />
<polygon points="346.41,70.00 346.41,90.00 329.09,100.00 311.77,90.00 311.77,70.00 329.09,60.00" fill="#d39387" />
<polygon points="381.05,70.00 381.05,90.00 363.73,100.00 346.41,90.00 346.41,70.00 363.73,60.00" fill="#c1a08b" />
<polygon points="415.69,70.00 415.69,90.00 398.37,100.00 381.05,90.00 381.05,70.00 398.37,60.00" fill="#cb8f7c" />
<polygon points="450.33,70.00 450.33,90.00 433.01,100.00 415.69,90.00 415.69,70.00 433.01,60.00" fill="#d08f72" />
<polygon points="484.97,70.00 484.97,90.00 467.65,100.00 450.33,90.00 450.33,70.00 467.65,60.00" fill="#c88771" />
<polygon points="519.62,70.00 519.62,90.00 502.29,100.00 484.97,90.00 484.97,70.00 502.29,60.00" fill="#cc7176" />
<polygon points="554.26,70.00 554.26,90.00 536.94,100.00 519.62,90.00 519.62,70.00 536.94,60.00" fill="#825786" />
<polygon points="588.90,70.00 588.90,90.00 571.58,100.00 554.26,90.00 554.26,70.00 571.58,60.00" fill="#3e6084" />
<polygon points="623.54,70.00 623.54,90.00 606.22,100.00 588.90,90.00 588.90,70.00 606.22,60.00" fill="#605a85" />
<polygon points="658.18,70.00 658.18,90.00 640.86,100.00 623.54,90.00 623.54,70.00 640.86,60.00" fill="#466084" />
<polygon points="692.82,70.00 692.82,90.00 675.50,100.00 658.18,90.00 658.18,70.00 675.50,60.00" fill="#575d84" />
<polygon points="727.46,70.00 727.46,90.00 710.14,100.00 692.82,90.00 692.82,70.00 710.14,60.00" fill="#525d85" />
<polygon points="762.10,70.00 762.10,90.00 744.78,100.00 727.46,90.00 727.46,70.00 744.78,60.00" fill="#2b6385" />
<polygon points="796.74,70.00 796.74,90.00 779.42,100.00 762.10,90.00 762.10,70.00 779.42,60.00" fill="#236484" />
<polygon points="831.38,70.00 831.38,90.00 814.06,100.00 796.74,90.00 796.74,70.00 814.06,60.00" fill="#1a6785" />
<polygon points="866.03,70.00 866.03,90.00 848.70,100.00 831.38,90.00 831.38,70.00 848.70,60.00" fill="#1a6785" />
<polygon points="900.67,70.00 900.67,90.00 883.35,100.00 866.03,90.00 866.03,70.00 883.35,60.00" fill="#1b6785" />
<polygon points="935.31,70.00 935.31,90.00 917.99,100.00 900.67,90.00 900.67,70.00 917.99,60.00" fill="#000000" />
<polygon points="51.96,100.00 51.96,120.00 34.64,130.00 17.32,120.00 17.32,100.00 34.64,90.00" fill="#1eb9f5" />
<polygon points="86.60,100.00 86.60,120.00 69.28,130.00 51.96,120.00 51.96,100.00 69.28,90.00" fill="#1cb1fc" />
<polygon points="121.24,100.00 121.24,120.00 103.92,130.00 86.60,120.00 86.60,100.00 103.92,90.00" fill="#1baffc" />
<polygon points="155.88,100.00 155.88,120.00 138.56,130.00 121.24,120.00 121.24,100.00 138.56,90.00" fill="#47b3dc" />
<polygon points="190.53,100.00 190.53,120.00 173.21,130.00 155.88,120.00 155.88,100.00 173.21,90.00" fill="#45b4dd" />
<polygon points="225.17,100.00 225.17,120.00 207.85,130.00 190.53,120.00 190.53,100.00 207.85,90.00" fill="#1cc1f0" />
<polygon points="259.81,100.00 259.81,120.00 242.49,130.00 225.17,120.00 225.17,100.00 242.49,90.00" fill="#57daca" />
<polygon points="294.45,100.00 294.45,120.00 277.13,130.00 259.81,120.00 259.81,100.00 277.13,90.00" fill="#74c4bb" />
<polygon points="329.09,100.00 329.09,120.00 311.77,130.00 294.45,120.00 294.45,100.00 311.77,90.00" fill="#90c0ac" />
<polygon points="363.73,100.00 363.73,120.00 346.41,130.00 329.09,120.00 329.09,100.00 346.41,90.00" fill="#eb8d74" />
<polygon points="398.37,100.00 398.37,120.00 381.05,130.00 363.73,120.00 363.73,100.00 381.05,90.00" fill="#b36d7b" />
<polygon points="433.01,100.00 433.01,120.00 415.69,130.00 398.37,120.00 398.37,100.00 415.69,90.00" fill="#c86f79" />
<polygon points="467.65,100.00 467.65,120.00 450.33,130.00 433.01,120.00 433.01,100.00 450.33,90.00" fill="#b77478" />
<polygon points="502.29,100.00 502.29,120.00 484.97,130.00 467.65,120.00 467.65,100.00 484.97,90.00" fill="#c36f78" />
<polygon points="536.94,100.00 536.94,120.00 519.62,130.00 502.29,120.00 502.29,100.00 519.62,90.00" fill="#eb6c75" />
<polygon points="571.58,100.00 571.58,120.00 554.26,130.00 536.94,120.00 536.94,100.00 554.26,90.00" fill="#a65c81" />
<polygon points="606.22,100.00 606.22,120.00 588.90,130.00 571.58,120.00 571.58,100.00 588.90,90.00" fill="#6a5d82" />
<polygon points="640.86,100.00 640.86,120.00 623.54,130.00 606.22,120.00 606.22,100.00 623.54,90.00" fill="#336384" />
<polygon points="675.50,100.00 675.50,120.00 658.18,130.00 640.86,120.00 640.86,100.00 658.18,90.00" fill="#2b6385" />
<polygon points="710.14,100.00 710.14,120.00 692.82,130.00 675.50,120.00 675.50,100.00 692.82,90.00" fill="#386185" />
<polygon points="744.78,100.00 744.78,120.00 727.46,130.00 710.14,120.00 710.14,100.00 727.46,90.00" fill="#1f6685" />
<polygon points="779.42,100.00 779.42,120.00 762.10,130.00 744.78,120.00 744.78,100.00 762.10,90.00" fill="#1c6785" />
<polygon points="814.06,100.00 814.06,120.00 796.74,130.00 779.42,120.00 779.42,100.00 796.74,90.00" fill="#1b6685" />
<polygon points="848.70,100.00 848.70,120.00 831.38,130.00 814.06,120.00 814.06,100.00 831.38,90.00" fill="#1a6785" />
<polygon points="883.35,100.00 883.35,120.00 866.03,130.00 848.70,120.00 848.70,100.00 866.03,90.00" fill="#1a6685" />
<polygon points="917.99,100.00 917.99,120.00 900.67,130.00 883.35,120.00 883.35,100.00 900.67,90.00" fill="#1a6786" />
<polygon points="34.64,130.00 34.64,150.00 17.32,160.00 -0.00,150.00 0.00,130.00 17.32,120.00" fill="#38d4e2" />
<polygon points="69.28,130.00 69.28,150.00 51.96,160.00 34.64,150.00 34.64,130.00 51.96,120.00" fill="#1baffd" />
<polygon points="103.92,130.00 103.92,150.00 86.60,160.00 69.28,150.00 69.28,130.00 86.60,120.00" fill="#1bb0fc" />
<polygon points="138.56,130.00 138.56,150.00 121.24,160.00 103.92,150.00 103.92,130.00 121.24,120.00" fill="#1cb0fb" />
<polygon points="173.21,130.00 173.21,150.00 155.88,160.00 138.56,150.00 138.56,130.00 155.88,120.00" fill="#89bcaa" />
<polygon points="207.85,130.00 207.85,150.00 190.53,160.00 173.21,150.00 173.21,130.00 190.53,120.00" fill="#48c5d0" />
<polygon points="242.49,130.00 242.49,150.00 225.17,160.00 207.85,150.00 207.85,130.00 225.17,120.00" fill="#6dbdbf" />
<polygon points="277.13,130.00 277.13,150.00 259.81,160.00 242.49,150.00 242.49,130.00 259.81,120.00" fill="#b3ae9c" />
<polygon points="311.77,130.00 311.77,150.00 294.45,160.00 277.13,150.00 277.13,130.00 294.45,120.00" fill="#da9c85" />
<polygon points="346.41,130.00 346.41,150.00 329.09,160.00 311.77,150.00 311.77,130.00 329.09,120.00" fill="#ed8074" />
<polygon points="381.05,130.00 381.05,150.00 363.73,160.00 346.41,150.00 346.41,130.00 363.73,120.00" fill="#df7074" />
<polygon points="415.69,130.00 415.69,150.00 398.37,160.00 381.05,150.00 381.05,130.00 398.37,120.00" fill="#ab5f7d" />
<polygon points="450.33,130.00 450.33,150.00 433.01,160.00 415.69,150.00 415.69,130.00 433.01,120.00" fill="#cf6479" />
<polygon points="484.97,130.00 484.97,150.00 467.65,160.00 450.33,150.00 450.33,130.00 467.65,120.00" fill="#8d5a81" />
<polygon points="519.62,130.00 519.62,150.00 502.29,160.00 484.97,150.00 484.97,130.00 502.29,120.00" fill="#b1607d" />
<polygon points="554.26,130.00 554.26,150.00 536.94,160.00 519.62,150.00 519.62,130.00 536.94,120.00" fill="#a45d7d" />
<polygon points="588.90,130.00 588.90,150.00 571.58,160.00 554.26,150.00 554.26,130.00 571.58,120.00" fill="#8a5881" />
<polygon points="623.54,130.00 623.54,150.00 606.22,160.00 588.90,150.00 588.90,130.00 606.22,120.00" fill="#7d5783" />
<polygon points="658.18,130.00 658.18,150.00 640.86,160.00 623.54,150.00 623.54,130.00 640.86,120.00" fill="#366184" />
<polygon points="692.82,130.00 692.82,150.00 675.50,160.00 658.18,150.00 658.18,130.00 675.50,120.00" fill="#1f6584" />
<polygon points="727.46,130.00 727.46,150.00 710.14,160.00 692.82,150.00 692.82,130.00 710.14,120.00" fill="#1b6785" />
<polygon points="762.10,130.00 762.10,150.00 744.78,160.00 727.46,150.00 727.46,130.00 744.78,120.00" fill="#1b6785" />
<polygon points="796.74,130.00 796.74,150.00 779.42,160.00 762.10,150.00 762.10,130.00 779.42,120.00" fill="#1a6785" />
<polygon points="831.38,130.00 831.38,150.00 814.06,160.00 796.74,150.00 796.74,130.00 814.06,120.00" fill="#1a6785" />
<polygon points="866.03,130.00 866.03,150.00 848.70,160.00 831.38,150.00 831.38,130.00 848.70,120.00" fill="#1a6785" />
<polygon points="900.67,130.00 900.67,150.00 883.35,160.00 866.03,150.00 866.03,130.00 883.35,120.00" fill="#1a6785" />
<polygon points="935.31,130.00 935.31,150.00 917.99,160.00 900.67,150.00 900.67,130.00 917.99,120.00" fill="#000000" />
<polygon points="51.96,160.00 51.96,180.00 34.64,190.00 17.32,180.00 17.32,160.00 34.64,150.00" fill="#34cde6" />
<polygon points="86.60,160.00 86.60,180.00 69.28,190.00 51.96,180.00 51.96,160.00 69.28,150.00" fill="#1eb6f7" />
<polygon points="121.24,160.00 121.24,180.00 103.92,190.00 86.60,180.00 86.60,160.00 103.92,150.00" fill="#36cade" />
<polygon points="155.88,160.00 155.88,180.00 138.56,190.00 121.24,180.00 121.24,160.00 138.56,150.00" fill="#31c7df" />
<polygon points="190.53,160.00 190.53,180.00 173.21,190.00 155.88,180.00 155.88,160.00 173.21,150.00" fill="#63ccbd" />
<polygon points="225.17,160.00 225.17,180.00 207.85,190.00 190.53,180.00 190.53,160.00 207.85,150.00" fill="#59d7c7" />
<polygon points="259.81,160.00 259.81,180.00 242.49,190.00 225.17,180.00 225.17,160.00 242.49,150.00" fill="#88c1b2" />
<polygon points="294.45,160.00 294.45,180.00 277.13,190.00 259.81,180.00 259.81,160.00 277.13,150.00" fill="#c69283" />
<polygon points="329.09,160.00 329.09,180.00 311.77,190.00 294.45,180.00 294.45,160.00 311.77,150.00" fill="#de6c77" />
<polygon points="363.73,160.00 363.73,180.00 346.41,190.00 329.09,180.00 329.09,160.00 346.41,150.00" fill="#c86478" />
<polygon points="398.37,160.00 398.37,180.00 381.05,190.00 363.73,180.00 363.73,160.00 381.05,150.00" fill="#e56876" />
<polygon points="433.01,160.00 433.01,180.00 415.69,190.00 398.37,180.00 398.37,160.00 415.69,150.00" fill="#ad617c" />
<polygon points="467.65,160.00 467.65,180.00 450.33,190.00 433.01,180.00 433.01,160.00 450.33,150.00" fill="#9a5a80" />
<polygon points="502.29,160.00 502.29,180.00 484.97,190.00 467.65,180.00 467.65,160.00 484.97,150.00" fill="#865783" />
<polygon points="536.94,160.00 536.94,180.00 519.62,190.00 502.29,180.00 502.29,160.00 519.62,150.00" fill="#6f5786" />
<polygon points="571.58,160.00 571.58,180.00 554.26,190.00 536.94,180.00 536.94,160.00 554.26,150.00" fill="#735a84" />
<polygon points="606.22,160.00 606.22,180.00 588.90,190.00 571.58,180.00 571.58,160.00 588.90,150.00" fill="#5d5b85" />
<polygon points="640.86,160.00 640.86,180.00 623.54,190.00 606.22,180.00 606.22,160.00 623.54,150.00" fill="#4b5d85" />
<polygon points="675.50,160.00 675.50,180.00 658.18,190.00 640.86,180.00 640.86,160.00 658.18,150.00" fill="#226583" />
<polygon points="710.14,160.00 710.14,180.00 692.82,190.00 675.50,180.00 675.50,160.00 692.82,150.00" fill="#1a6685" />
<polygon points="744.78,160.00 744.78,180.00 727.46,190.00 710.14,180.00 710.14,160.00 727.46,150.00" fill="#1a6785" />
<polygon points="779.42,160.00 779.42,180.00 762.10,190.00 744.78,180.00 744.78,160.00 762.10,150.00" fill="#1a6785" />
<polygon points="814.06,160.00 814.06,180.00 796.74,190.00 779.42,180.00 779.42,160.00 796.74,150.00" fill="#1a6785" />
<polygon points="848.70,160.00 848.70,180.00 831.38,190.00 814.06,180.00 814.06,160.00 831.38,150.00" fill="#1a6785" />
<polygon points="883.35,160.00 883.35,180.00 866.03,190.00 848.70,180.00 848.70,160.00 866.03,150.00" fill="#1a6785" />
<polygon points="917.99,160.00 917.99,180.00 900.67,190.00 883.35,180.00 883.35,160.00 900.67,150.00" fill="#1b6785" />
<polygon points="34.64,190.00 34.64,210.00 17.32,220.00 -0.00,210.00 0.00,190.00 17.32,180.00" fill="#43ddd9" />
<polygon points="69.28,190.00 69.28,210.00 51.96,220.00 34.64,210.00 34.64,190.00 51.96,180.00" fill="#41ddd9" />
<polygon points="103.92,190.00 103.92,210.00 86.60,220.00 69.28,210.00 69.28,190.00 86.60,180.00" fill="#5dbdca" />
<polygon points="138.56,190.00 138.56,210.00 121.24,220.00 103.92,210.00 103.92,190.00 121.24,180.00" fill="#5acec6" />
<polygon points="173.21,190.00 173.21,210.00 155.88,220.00 138.56,210.00 138.56,190.00 155.88,180.00" fill="#779da9" />
<polygon points="207.85,190.00 207.85,210.00 190.53,220.00 173.21,210.00 173.21,190.00 190.53,180.00" fill="#878f97" />
<polygon points="242.49,190.00 242.49,210.00 225.17,220.00 207.85,210.00 207.85,190.00 225.17,180.00" fill="#b5c990" />
<polygon points="277.13,190.00 277.13,210.00 259.81,220.00 242.49,210.00 242.49,190.00 259.81,180.00" fill="#e8a96d" />
<polygon points="311.77,190.00 311.77,210.00 294.45,220.00 277.13,210.00 277.13,190.00 294.45,180.00" fill="#dd9077" />
<polygon points="346.41,190.00 346.41,210.00 329.09,220.00 311.77,210.00 311.77,190.00 329.09,180.00" fill="#855e7e" />
<polygon points="381.05,190.00 381.05,210.00 363.73,220.00 346.41,210.00 346.41,190.00 363.73,180.00" fill="#805d80" />
<polygon points="415.69,190.00 415.69,210.00 398.37,220.00 381.05,210.00 381.05,190.00 398.37,180.00" fill="#6a6481" />
<polygon points="450.33,190.00 450.33,210.00 433.01,220.00 415.69,210.00 415.69,190.00 433.01,180.00" fill="#3a6185" />
<polygon points="484.97,190.00 484.97,210.00 467.65,220.00 450.33,210.00 450.33,190.00 467.65,180.00" fill="#625986" />
<polygon points="519.62,190.00 519.62,210.00 502.29,220.00 484.97,210.00 484.97,190.00 502.29,180.00" fill="#495d85" />
<polygon points="554.26,190.00 554.26,210.00 536.94,220.00 519.62,210.00 519.62,190.00 536.94,180.00" fill="#4e5c85" />
<polygon points="588.90,190.00 588.90,210.00 571.58,220.00 554.26,210.00 554.26,190.00 571.58,180.00" fill="#246584" />
<polygon points="623.54,190.00 623.54,210.00 606.22,220.00 588.90,210.00 588.90,190.00 606.22,180.00" fill="#226585" />
<polygon points="658.18,190.00 658.18,210.00 640.86,220.00 623.54,210.00 623.54,190.00 640.86,180.00" fill="#1c6785" />
<polygon points="692.82,190.00 692.82,210.00 675.50,220.00 658.18,210.00 658.18,190.00 675.50,180.00" fill="#1a6785" />
<polygon points="727.46,190.00 727.46,210.00 710.14,220.00 692.82,210.00 692.82,190.00 710.14,180.00" fill="#1a6785" />
<polygon points="762.10,190.00 762.10,210.00 744.78,220.00 727.46,210.00 727.46,190.00 744.78,180.00" fill="#1a6685" />
<polygon points="796.74,190.00 796.74,210.00 779.42,220.00 762.10,210.00 762.10,190.00 779.42,180.00" fill="#1b6785" />
<polygon points="831.38,190.00 831.38,210.00 814.06,220.00 796.74,210.00 796.74,190.00 814.06,180.00" fill="#1a6785" />
<polygon points="866.03,190.00 866.03,210.00 848.70,220.00 831.38,210.00 831.38,190.00 848.70,180.00" fill="#1a6685" />
<polygon points="900.67,190.00 900.67,210.00 883.35,220.00 866.03,210.00 866.03,190.00 883.35,180.00" fill="#1a6785" />
<polygon points="935.31,190.00 935.31,210.00 917.99,220.00 900.67,210.00 900.67,190.00 917.99,180.00" fill="#000000" />
<polygon points="51.96,220.00 51.96,240.00 34.64,250.00 17.32,240.00 17.32,220.00 34.64,210.00" fill="#69c9c4" />
<polygon points="86.60,220.00 86.60,240.00 69.28,250.00 51.96,240.00 51.96,220.00 69.28,210.00" fill="#69d9c4" />
<polygon points="121.24,220.00 121.24,240.00 103.92,250.00 86.60,240.00 86.60,220.00 103.92,210.00" fill="#dd7e8c" />
<polygon points="155.88,220.00 155.88,240.00 138.56,250.00 121.24,240.00 121.24,220.00 138.56,210.00" fill="#a2979b" />
<polygon points="190.53,220.00 190.53,240.00 173.21,250.00 155.88,240.00 155.88,220.00 173.21,210.00" fill="#ae7986" />
<polygon points="225.17,220.00 225.17,240.00 207.85,250.00 190.53,240.00 190.53,220.00 207.85,210.00" fill="#ce9776" />
<polygon points="259.81,220.00 259.81,240.00 242.49,250.00 225.17,240.00 225.17,220.00 242.49,210.00" fill="#c47477" />
<polygon points="294.45,220.00 294.45,240.00 277.13,250.00 259.81,240.00 259.81,220.00 277.13,210.00" fill="#945e7f" />
<polygon points="329.09,220.00 329.09,240.00 311.77,250.00 294.45,240.00 294.45,220.00 311.77,210.00" fill="#446283" />
<polygon points="363.73,220.00 363.73,240.00 346.41,250.00 329.09,240.00 329.09,220.00 346.41,210.00" fill="#3d6184" />
<polygon points="398.37,220.00 398.37,240.00 381.05,250.00 363.73,240.00 363.73,220.00 381.05,210.00" fill="#565d85" />
<polygon points="433.01,220.00 433.01,240.00 415.69,250.00 398.37,240.00 398.37,220.00 415.69,210.00" fill="#1c6784" />
<polygon points="467.65,220.00 467.65,240.00 450.33,250.00 433.01,240.00 433.01,220.00 450.33,210.00" fill="#1b6684" />
<polygon points="502.29,220.00 502.29,240.00 484.97,250.00 467.65,240.00 467.65,220.00 484.97,210.00" fill="#206584" />
<polygon points="536.94,220.00 536.94,240.00 519.62,250.00 502.29,240.00 502.29,220.00 519.62,210.00" fill="#276485" />
<polygon points="571.58,220.00 571.58,240.00 554.26,250.00 536.94,240.00 536.94,220.00 554.26,210.00" fill="#1c6684" />
<polygon points="606.22,220.00 606.22,240.00 588.90,250.00 571.58,240.00 571.58,220.00 588.90,210.00" fill="#1a6785" />
<polygon points="640.86,220.00 640.86,240.00 623.54,250.00 606.22,240.00 606.22,220.00 623.54,210.00" fill="#1b6685" />
<polygon points="675.50,220.00 675.50,240.00 658.18,250.00 640.86,240.00 640.86,220.00 658.18,210.00" fill="#1b6684" />
<polygon points="710.14,220.00 710.14,240.00 692.82,250.00 675.50,240.00 675.50,220.00 692.82,210.00" fill="#1a6685" />
<polygon points="744.78,220.00 744.78,240.00 727.46,250.00 710.14,240.00 710.14,220.00 727.46,210.00" fill="#1a6785" />
<polygon points="779.42,220.00 779.42,240.00 762.10,250.00 744.78,240.00 744.78,220.00 762.10,210.00" fill="#1a6685" />
<polygon points="814.06,220.00 814.06,240.00 796.74,250.00 779.42,240.00 779.42,220.00 796.74,210.00" fill="#1a6785" />
<polygon points="848.70,220.00 848.70,240.00 831.38,250.00 814.06,240.00 814.06,220.00 831.38,210.00" fill="#1a6785" />
<polygon points="883.35,220.00 883.35,240.00 866.03,250.00 848.70,240.00 848.70,220.00 866.03,210.00" fill="#1a6785" />
<polygon points="917.99,220.00 917.99,240.00 900.67,250.00 883.35,240.00 883.35,220.00 900.67,210.00" fill="#1a6685" />
<polygon points="34.64,250.00 34.64,270.00 17.32,280.00 -0.00,270.00 0.00,250.00 17.32,240.00" fill="#c99590" />
<polygon points="69.28,250.00 69.28,270.00 51.96,280.00 34.64,270.00 34.64,250.00 51.96,240.00" fill="#a1c5a1" />
<polygon points="103.92,250.00 103.92,270.00 86.60,280.00 69.28,270.00 69.28,250.00 86.60,240.00" fill="#ccc184" />
<polygon points="138.56,250.00 138.56,270.00 121.24,280.00 103.92,270.00 103.92,250.00 121.24,240.00" fill="#eb927a" />
<polygon points="173.21,250.00 173.21,270.00 155.88,280.00 138.56,270.00 138.56,250.00 155.88,240.00" fill="#e76c7d" />
<polygon points="207.85,250.00 207.85,270.00 190.53,280.00 173.21,270.00 173.21,250.00 190.53,240.00" fill="#ba687b" />
<polygon points="242.49,250.00 242.49,270.00 225.17,280.00 207.85,270.00 207.85,250.00 225.17,240.00" fill="#cb7376" />
<polygon points="277.13,250.00 277.13,270.00 259.81,280.00 242.49,270.00 242.49,250.00 259.81,240.00" fill="#a45d7d" />
<polygon points="311.77,250.00 311.77,270.00 294.45,280.00 277.13,270.00 277.13,250.00 294.45,240.00" fill="#555f84" />
<polygon points="346.41,250.00 346.41,270.00 329.09,280.00 311.77,270.00 311.77,250.00 329.09,240.00" fill="#455d86" />
<polygon points="381.05,250.00 381.05,270.00 363.73,280.00 346.41,270.00 346.41,250.00 363.73,240.00" fill="#3e6085" />
<polygon points="415.69,250.00 415.69,270.00 398.37,280.00 381.05,270.00 381.05,250.00 398.37,240.00" fill="#3b6284" />
<polygon points="450.33,250.00 450.33,270.00 433.01,280.00 415.69,270.00 415.69,250.00 433.01,240.00" fill="#1a6785" />
<polygon points="484.97,250.00 484.97,270.00 467.65,280.00 450.33,270.00 450.33,250.00 467.65,240.00" fill="#1c6785" />
<polygon points="519.62,250.00 519.62,270.00 502.29,280.00 484.97,270.00 484.97,250.00 502.29,240.00" fill="#216585" />
<polygon points="554.26,250.00 554.26,270.00 536.94,280.00 519.62,270.00 519.62,250.00 536.94,240.00" fill="#1b6785" />
<polygon points="588.90,250.00 588.90,270.00 571.58,280.00 554.26,270.00 554.26,250.00 571.58,240.00" fill="#1a6685" />
<polygon points="623.54,250.00 623.54,270.00 606.22,280.00 588.90,270.00 588.90,250.00 606.22,240.00" fill="#1a6785" />
<polygon points="658.18,250.00 658.18,270.00 640.86,280.00 623.54,270.00 623.54,250.00 640.86,240.00" fill="#1b6785" />
<polygon points="692.82,250.00 692.82,270.00 675.50,280.00 658.18,270.00 658.18,250.00 675.50,240.00" fill="#1d6684" />
<polygon points="727.46,250.00 727.46,270.00 710.14,280.00 692.82,270.00 692.82,250.00 710.14,240.00" fill="#1a6785" />
<polygon points="762.10,250.00 762.10,270.00 744.78,280.00 727.46,270.00 727.46,250.00 744.78,240.00" fill="#1b6685" />
<polygon points="796.74,250.00 796.74,270.00 779.42,280.00 762.10,270.00 762.10,250.00 779.42,240.00" fill="#1b6685" />
<polygon points="831.38,250.00 831.38,270.00 814.06,280.00 796.74,270.00 796.74,250.00 814.06,240.00" fill="#1a6785" />
<polygon points="866.03,250.00 866.03,270.00 848.70,280.00 831.38,270.00 831.38,250.00 848.70,240.00" fill="#1a6785" />
<polygon points="900.67,250.00 900.67,270.00 883.35,280.00 866.03,270.00 866.03,250.00 883.35,240.00" fill="#1a6685" />
<polygon points="935.31,250.00 935.31,270.00 917.99,280.00 900.67,270.00 900.67,250.00 917.99,240.00" fill="#000000" />
<polygon points="51.96,280.00 51.96,300.00 34.64,310.00 17.32,300.00 17.32,280.00 34.64,270.00" fill="#ea847e" />
<polygon points="86.60,280.00 86.60,300.00 69.28,310.00 51.96,300.00 51.96,280.00 69.28,270.00" fill="#f38b72" />
<polygon points="121.24,280.00 121.24,300.00 103.92,310.00 86.60,300.00 86.60,280.00 103.92,270.00" fill="#f8896d" />
<polygon points="155.88,280.00 155.88,300.00 138.56,310.00 121.24,300.00 121.24,280.00 138.56,270.00" fill="#fa6c78" />
<polygon points="190.53,280.00 190.53,300.00 173.21,310.00 155.88,300.00 155.88,280.00 173.21,270.00" fill="#b8637d" />
<polygon points="225.17,280.00 225.17,300.00 207.85,310.00 190.53,300.00 190.53,280.00 207.85,270.00" fill="#785c82" />
<polygon points="259.81,280.00 259.81,300.00 242.49,310.00 225.17,300.00 225.17,280.00 242.49,270.00" fill="#ad5c7c" />
<polygon points="294.45,280.00 294.45,300.00 277.13,310.00 259.81,300.00 259.81,280.00 277.13,270.00" fill="#ab5e7c" />
<polygon points="329.09,280.00 329.09,300.00 311.77,310.00 294.45,300.00 294.45,280.00 311.77,270.00" fill="#3f6184" />
<polygon points="363.73,280.00 363.73,300.00 346.41,310.00 329.09,300.00 329.09,280.00 346.41,270.00" fill="#1a6685" />
<polygon points="398.37,280.00 398.37,300.00 381.05,310.00 363.73,300.00 363.73,280.00 381.05,270.00" fill="#1f6785" />
<polygon points="433.01,280.00 433.01,300.00 415.69,310.00 398.37,300.00 398.37,280.00 415.69,270.00" fill="#1a6885" />
<polygon points="467.65,280.00 467.65,300.00 450.33,310.00 433.01,300.00 433.01,280.00 450.33,270.00" fill="#1b6886" />
<polygon points="502.29,280.00 502.29,300.00 484.97,310.00 467.65,300.00 467.65,280.00 484.97,270.00" fill="#1a6785" />
<polygon points="536.94,280.00 536.94,300.00 519.62,310.00 502.29,300.00 502.29,280.00 519.62,270.00" fill="#1a6785" />
<polygon points="571.58,280.00 571.58,300.00 554.26,310.00 536.94,300.00 536.94,280.00 554.26,270.00" fill="#1b6785" />
<polygon points="606.22,280.00 606.22,300.00 588.90,310.00 571.58,300.00 571.58,280.00 588.90,270.00" fill="#1b6785" />
<polygon points="640.86,280.00 640.86,300.00 623.54,310.00 606.22,300.00 606.22,280.00 623.54,270.00" fill="#1a6685" />
<polygon points="675.50,280.00 675.50,300.00 658.18,310.00 640.86,300.00 640.86,280.00 658.18,270.00" fill="#1c6684" />
<polygon points="710.14,280.00 710.14,300.00 692.82,310.00 675.50,300.00 675.50,280.00 692.82,270.00" fill="#1c6684" />
<polygon points="744.78,280.00 744.78,300.00 727.46,310.00 710.14,300.00 710.14,280.00 727.46,270.00" fill="#1a6785" />
<polygon points="779.42,280.00 779.42,300.00 762.10,310.00 744.78,300.00 744.78,280.00 762.10,270.00" fill="#1a6785" />
<polygon points="814.06,280.00 814.06,300.00 796.74,310.00 779.42,300.00 779.42,280.00 796.74,270.00" fill="#1c6785" />
<polygon points="848.70,280.00 848.70,300.00 831.38,310.00 814.06,300.00 814.06,280.00 831.38,270.00" fill="#1a6785" />
<polygon points="883.35,280.00 883.35,300.00 866.03,310.00 848.70,300.00 848.70,280.00 866.03,270.00" fill="#1a6685" />
<polygon points="917.99,280.00 917.99,300.00 900.67,310.00 883.35,300.00 883.35,280.00 900.67,270.00" fill="#1a6685" />
<polygon points="34.64,310.00 34.64,330.00 17.32,340.00 -0.00,330.00 0.00,310.00 17.32,300.00" fill="#f28377" />
<polygon points="69.28,310.00 69.28,330.00 51.96,340.00 34.64,330.00 34.64,310.00 51.96,300.00" fill="#f67177" />
<polygon points="103.92,310.00 103.92,330.00 86.60,340.00 69.28,330.00 69.28,310.00 86.60,300.00" fill="#f76b74" />
<polygon points="138.56,310.00 138.56,330.00 121.24,340.00 103.92,330.00 103.92,310.00 121.24,300.00" fill="#ed7176" />
<polygon points="173.21,310.00 173.21,330.00 155.88,340.00 138.56,330.00 138.56,310.00 155.88,300.00" fill="#9a5d7e" />
<polygon points="207.85,310.00 207.85,330.00 190.53,340.00 173.21,330.00 173.21,310.00 190.53,300.00" fill="#625f82" />
<polygon points="242.49,310.00 242.49,330.00 225.17,340.00 207.85,330.00 207.85,310.00 225.17,300.00" fill="#675c84" />
<polygon points="277.13,310.00 277.13,330.00 259.81,340.00 242.49,330.00 242.49,310.00 259.81,300.00" fill="#555b85" />
<polygon points="311.77,310.00 311.77,330.00 294.45,340.00 277.13,330.00 277.13,310.00 294.45,300.00" fill="#545c85" />
<polygon points="346.41,310.00 346.41,330.00 329.09,340.00 311.77,330.00 311.77,310.00 329.09,300.00" fill="#2b6386" />
<polygon points="381.05,310.00 381.05,330.00 363.73,340.00 346.41,330.00 346.41,310.00 363.73,300.00" fill="#1a6785" />
<polygon points="415.69,310.00 415.69,330.00 398.37,340.00 381.05,330.00 381.05,310.00 398.37,300.00" fill="#1b6785" />
<polygon points="450.33,310.00 450.33,330.00 433.01,340.00 415.69,330.00 415.69,310.00 433.01,300.00" fill="#1b6785" />
<polygon points="484.97,310.00 484.97,330.00 467.65,340.00 450.33,330.00 450.33,310.00 467.65,300.00" fill="#1a6785" />
<polygon points="519.62,310.00 519.62,330.00 502.29,340.00 484.97,330.00 484.97,310.00 502.29,300.00" fill="#1a6785" />
<polygon points="554.26,310.00 554.26,330.00 536.94,340.00 519.62,330.00 519.62,310.00 536.94,300.00" fill="#1a6785" />
<polygon points="588.90,310.00 588.90,330.00 571.58,340.00 554.26,330.00 554.26,310.00 571.58,300.00" fill="#1b6785" />
<polygon points="623.54,310.00 623.54,330.00 606.22,340.00 588.90,330.00 588.90,310.00 606.22,300.00" fill="#1a6785" />
<polygon points="658.18,310.00 658.18,330.00 640.86,340.00 623.54,330.00 623.54,310.00 640.86,300.00" fill="#1b6685" />
<polygon points="692.82,310.00 692.82,330.00 675.50,340.00 658.18,330.00 658.18,310.00 675.50,300.00" fill="#1a6685" />
<polygon points="727.46,310.00 727.46,330.00 710.14,340.00 692.82,330.00 692.82,310.00 710.14,300.00" fill="#1a6685" />
<polygon points="762.10,310.00 762.10,330.00 744.78,340.00 727.46,330.00 727.46,310.00 744.78,300.00" fill="#1b6886" />
<polygon points="796.74,310.00 796.74,330.00 779.42,340.00 762.10,330.00 762.10,310.00 779.42,300.00" fill="#1b6785" />
<polygon points="831.38,310.00 831.38,330.00 814.06,340.00 796.74,330.00 796.74,310.00 814.06,300.00" fill="#1b6785" />
<polygon points="866.03,310.00 866.03,330.00 848.70,340.00 831.38,330.00 831.38,310.00 848.70,300.00" fill="#1a6785" />
<polygon points="900.67,310.00 900.67,330.00 883.35,340.00 866.03,330.00 866.03,310.00 883.35,300.00" fill="#1a6685" />
<polygon points="935.31,310.00 935.31,330.00 917.99,340.00 900.67,330.00 900.67,310.00 917.99,300.00" fill="#000000" />
<polygon points="51.96,340.00 51.96,360.00 34.64,370.00 17.32,360.00 17.32,340.00 34.64,330.00" fill="#e36a7a" />
<polygon points="86.60,340.00 86.60,360.00 69.28,370.00 51.96,360.00 51.96,340.00 69.28,330.00" fill="#9b607d" />
<polygon points="121.24,340.00 121.24,360.00 103.92,370.00 86.60,360.00 86.60,340.00 103.92,330.00" fill="#b15f7a" />
<polygon points="155.88,340.00 155.88,360.00 138.56,370.00 121.24,360.00 121.24,340.00 138.56,330.00" fill="#a05b7d" />
<polygon points="190.53,340.00 190.53,360.00 173.21,370.00 155.88,360.00 155.88,340.00 173.21,330.00" fill="#815b81" />
<polygon points="225.17,340.00 225.17,360.00 207.85,370.00 190.53,360.00 190.53,340.00 207.85,330.00" fill="#3a6085" />
<polygon points="259.81,340.00 259.81,360.00 242.49,370.00 225.17,360.00 225.17,340.00 242.49,330.00" fill="#206584" />
<polygon points="294.45,340.00 294.45,360.00 277.13,370.00 259.81,360.00 259.81,340.00 277.13,330.00" fill="#1b6685" />
<polygon points="329.09,340.00 329.09,360.00 311.77,370.00 294.45,360.00 294.45,340.00 311.77,330.00" fill="#1b6685" />
<polygon points="363.73,340.00 363.73,360.00 346.41,370.00 329.09,360.00 329.09,340.00 346.41,330.00" fill="#1a6785" />
<polygon points="398.37,340.00 398.37,360.00 381.05,370.00 363.73,360.00 363.73,340.00 381.05,330.00" fill="#1a6785" />
<polygon points="433.01,340.00 433.01,360.00 415.69,370.00 398.37,360.00 398.37,340.00 415.69,330.00" fill="#1a6685" />
<polygon points="467.65,340.00 467.65,360.00 450.33,370.00 433.01,360.00 433.01,340.00 450.33,330.00" fill="#1a6785" />
<polygon points="502.29,340.00 502.29,360.00 484.97,370.00 467.65,360.00 467.65,340.00 484.97,330.00" fill="#1a6785" />
<polygon points="536.94,340.00 536.94,360.00 519.62,370.00 502.29,360.00 502.29,340.00 519.62,330.00" fill="#1a6785" />
<polygon points="571.58,340.00 571.58,360.00 554.26,370.00 536.94,360.00 536.94,340.00 554.26,330.00" fill="#1b6785" />
<polygon points="606.22,340.00 606.22,360.00 588.90,370.00 571.58,360.00 571.58,340.00 588.90,330.00" fill="#1a6685" />
<polygon points="640.86,340.00 640.86,360.00 623.54,370.00 606.22,360.00 606.22,340.00 623.54,330.00" fill="#1a6685" />
<polygon points="675.50,340.00 675.50,360.00 658.18,370.00 640.86,360.00 640.86,340.00 658.18,330.00" fill="#1a6785" />
<polygon points="710.14,340.00 710.14,360.00 692.82,370.00 675.50,360.00 675.50,340.00 692.82,330.00" fill="#1a6685" />
<polygon points="744.78,340.00 744.78,360.00 727.46,370.00 710.14,360.00 710.14,340.00 727.46,330.00" fill="#1a6785" />
<polygon points="779.42,340.00 779.42,360.00 762.10,370.00 744.78,360.00 744.78,340.00 762.10,330.00" fill="#1b6886" />
<polygon points="814.06,340.00 814.06,360.00 796.74,370.00 779.42,360.00 779.42,340.00 796.74,330.00" fill="#1b6886" />
<polygon points="848.70,340.00 848.70,360.00 831.38,370.00 814.06,360.00 814.06,340.00 831.38,330.00" fill="#1a6785" />
<polygon points="883.35,340.00 883.35,360.00 866.03,370.00 848.70,360.00 848.70,340.00 866.03,330.00" fill="#1b6784" />
<polygon points="917.99,340.00 917.99,360.00 900.67,370.00 883.35,360.00 883.35,340.00 900.67,330.00" fill="#1b6684" />
<polygon points="34.64,370.00 34.64,390.00 17.32,400.00 -0.00,390.00 0.00,370.00 17.32,360.00" fill="#eb677c" />
<polygon points="69.28,370.00 69.28,390.00 51.96,400.00 34.64,390.00 34.64,370.00 51.96,360.00" fill="#bc617c" />
<polygon points="103.92,370.00 103.92,390.00 86.60,400.00 69.28,390.00 69.28,370.00 86.60,360.00" fill="#505f83" />
<polygon points="138.56,370.00 138.56,390.00 121.24,400.00 103.92,390.00 103.92,370.00 121.24,360.00" fill="#5e5d84" />
<polygon points="173.21,370.00 173.21,390.00 155.88,400.00 138.56,390.00 138.56,370.00 155.88,360.00" fill="#635885" />
<polygon points="207.85,370.00 207.85,390.00 190.53,400.00 173.21,390.00 173.21,370.00 190.53,360.00" fill="#515986" />
<polygon points="242.49,370.00 242.49,390.00 225.17,400.00 207.85,390.00 207.85,370.00 225.17,360.00" fill="#226584" />
<polygon points="277.13,370.00 277.13,390.00 259.81,400.00 242.49,390.00 242.49,370.00 259.81,360.00" fill="#1a6685" />
<polygon points="311.77,370.00 311.77,390.00 294.45,400.00 277.13,390.00 277.13,370.00 294.45,360.00" fill="#1b6786" />
<polygon points="346.41,370.00 346.41,390.00 329.09,400.00 311.77,390.00 311.77,370.00 329.09,360.00" fill="#1b6785" />
<polygon points="381.05,370.00 381.05,390.00 363.73,400.00 346.41,390.00 346.41,370.00 363.73,360.00" fill="#1a6785" />
<polygon points="415.69,370.00 415.69,390.00 398.37,400.00 381.05,390.00 381.05,370.00 398.37,360.00" fill="#1a6785" />
<polygon points="450.33,370.00 450.33,390.00 433.01,400.00 415.69,390.00 415.69,370.00 433.01,360.00" fill="#1a6785" />
<polygon points="484.97,370.00 484.97,390.00 467.65,400.00 450.33,390.00 450.33,370.00 467.65,360.00" fill="#1a6785" />
<polygon points="519.62,370.00 519.62,390.00 502.29,400.00 484.97,390.00 484.97,370.00 502.29,360.00" fill="#1b6684" />
<polygon points="554.26,370.00 554.26,390.00 536.94,400.00 519.62,390.00 519.62,370.00 536.94,360.00" fill="#1a6786" />
<polygon points="588.90,370.00 588.90,390.00 571.58,400.00 554.26,390.00 554.26,370.00 571.58,360.00" fill="#1b6785" />
<polygon points="623.54,370.00 623.54,390.00 606.22,400.00 588.90,390.00 588.90,370.00 606.22,360.00" fill="#1a6685" />
<polygon points="658.18,370.00 658.18,390.00 640.86,400.00 623.54,390.00 623.54,370.00 640.86,360.00" fill="#1b6785" />
<polygon points="692.82,370.00 692.82,390.00 675.50,400.00 658.18,390.00 658.18,370.00 675.50,360.00" fill="#1b6685" />
<polygon points="727.46,370.00 727.46,390.00 710.14,400.00 692.82,390.00 692.82,370.00 710.14,360.00" fill="#1a6885" />
<polygon points="762.10,370.00 762.10,390.00 744.78,400.00 727.46,390.00 727.46,370.00 744.78,360.00" fill="#1c6684" />
<polygon points="796.74,370.00 796.74,390.00 779.42,400.00 762.10,390.00 762.10,370.00 779.42,360.00" fill="#1a6785" />
<polygon points="831.38,370.00 831.38,390.00 814.06,400.00 796.74,390.00 796.74,370.00 814.06,360.00" fill="#1b6785" />
<polygon points="866.03,370.00 866.03,390.00 848.70,400.00 831.38,390.00 831.38,370.00 848.70,360.00" fill="#1a6685" />
<polygon points="900.67,370.00 900.67,390.00 883.35,400.00 866.03,390.00 866.03,370.00 883.35,360.00" fill="#1a6684" />
<polygon points="935.31,370.00 935.31,390.00 917.99,400.00 900.67,390.00 900.67,370.00 917.99,360.00" fill="#000000" />
<polygon points="51.96,400.00 51.96,420.00 34.64,430.00 17.32,420.00 17.32,400.00 34.64,390.00" fill="#99627d" />
<polygon points="86.60,400.00 86.60,420.00 69.28,430.00 51.96,420.00 51.96,400.00 69.28,390.00" fill="#5e5d82" />
<polygon points="121.24,400.00 121.24,420.00 103.92,430.00 86.60,420.00 86.60,400.00 103.92,390.00" fill="#396084" />
<polygon points="155.88,400.00 155.88,420.00 138.56,430.00 121.24,420.00 121.24,400.00 138.56,390.00" fill="#4c5c86" />
<polygon points="190.53,400.00 190.53,420.00 173.21,430.00 155.88,420.00 155.88,400.00 173.21,390.00" fill="#356185" />
<polygon points="225.17,400.00 225.17,420.00 207.85,430.00 190.53,420.00 190.53,400.00 207.85,390.00" fill="#1f6584" />
<polygon points="259.81,400.00 259.81,420.00 242.49,430.00 225.17,420.00 225.17,400.00 242.49,390.00" fill="#1a6685" />
<polygon points="294.45,400.00 294.45,420.00 277.13,430.00 259.81,420.00 259.81,400.00 277.13,390.00" fill="#1a6785" />
<polygon points="329.09,400.00 329.09,420.00 311.77,430.00 294.45,420.00 294.45,400.00 311.77,390.00" fill="#1b6886" />
<polygon points="363.73,400.00 363.73,420.00 346.41,430.00 329.09,420.00 329.09,400.00 346.41,390.00" fill="#1a6785" />
<polygon points="398.37,400.00 398.37,420.00 381.05,430.00 363.73,420.00 363.73,400.00 381.05,390.00" fill="#1a6786" />
<polygon points="433.01,400.00 433.01,420.00 415.69,430.00 398.37,420.00 398.37,400.00 415.69,390.00" fill="#1a6785" />
<polygon points="467.65,400.00 467.65,420.00 450.33,430.00 433.01,420.00 433.01,400.00 450.33,390.00" fill="#1a6685" />
<polygon points="502.29,400.00 502.29,420.00 484.97,430.00 467.65,420.00 467.65,400.00 484.97,390.00" fill="#1c6784" />
<polygon points="536.94,400.00 536.94,420.00 519.62,430.00 502.29,420.00 502.29,400.00 519.62,390.00" fill="#1d6684" />
<polygon points="571.58,400.00 571.58,420.00 554.26,430.00 536.94,420.00 536.94,400.00 554.26,390.00" fill="#1a6785" />
<polygon points="606.22,400.00 606.22,420.00 588.90,430.00 571.58,420.00 571.58,400.00 588.90,390.00" fill="#1a6685" />
<polygon points="640.86,400.00 640.86,420.00 623.54,430.00 606.22,420.00 606.22,400.00 623.54,390.00" fill="#1a6785" />
<polygon points="675.50,400.00 675.50,420.00 658.18,430.00 640.86,420.00 640.86,400.00 658.18,390.00" fill="#1a6685" />
<polygon points="710.14,400.00 710.14,420.00 692.82,430.00 675.50,420.00 675.50,400.00 692.82,390.00" fill="#1a6785" />
<polygon points="744.78,400.00 744.78,420.00 727.46,430.00 710.14,420.00 710.14,400.00 727.46,390.00" fill="#1a6785" />
<polygon points="779.42,400.00 779.42,420.00 762.10,430.00 744.78,420.00 744.78,400.00 762.10,390.00" fill="#1a6785" />
<polygon points="814.06,400.00 814.06,420.00 796.74,430.00 779.42,420.00 779.42,400.00 796.74,390.00" fill="#1a6685" />
<polygon points="848.70,400.00 848.70,420.00 831.38,430.00 814.06,420.00 814.06,400.00 831.38,390.00" fill="#1a6785" />
<polygon points="883.35,400.00 883.35,420.00 866.03,430.00 848.70,420.00 848.70,400.00 866.03,390.00" fill="#1b6685" />
<polygon points="917.99,400.00 917.99,420.00 900.67,430.00 883.35,420.00 883.35,400.00 900.67,390.00" fill="#1a6685" />
<polygon points="34.64,430.00 34.64,450.00 17.32,460.00 -0.00,450.00 0.00,430.00 17.32,420.00" fill="#885b80" />
<polygon points="69.28,430.00 69.28,450.00 51.96,460.00 34.64,450.00 34.64,430.00 51.96,420.00" fill="#316284" />
<polygon points="103.92,430.00 103.92,450.00 86.60,460.00 69.28,450.00 69.28,430.00 86.60,420.00" fill="#1c6684" />
<polygon points="138.56,430.00 138.56,450.00 121.24,460.00 103.92,450.00 103.92,430.00 121.24,420.00" fill="#1e6684" />
<polygon points="173.21,430.00 173.21,450.00 155.88,460.00 138.56,450.00 138.56,430.00 155.88,420.00" fill="#206685" />
<polygon points="207.85,430.00 207.85,450.00 190.53,460.00 173.21,450.00 173.21,430.00 190.53,420.00" fill="#1e6685" />
<polygon points="242.49,430.00 242.49,450.00 225.17,460.00 207.85,450.00 207.85,430.00 225.17,420.00" fill="#1a6785" />
<polygon points="277.13,430.00 277.13,450.00 259.81,460.00 242.49,450.00 242.49,430.00 259.81,420.00" fill="#1a6785" />
<polygon points="311.77,430.00 311.77,450.00 294.45,460.00 277.13,450.00 277.13,430.00 294.45,420.00" fill="#1a6785" />
<polygon points="346.41,430.00 346.41,450.00 329.09,460.00 311.77,450.00 311.77,430.00 329.09,420.00" fill="#1b6886" />
<polygon points="381.05,430.00 381.05,450.00 363.73,460.00 346.41,450.00 346.41,430.00 363.73,420.00" fill="#1a6785" />
<polygon points="415.69,430.00 415.69,450.00 398.37,460.00 381.05,450.00 381.05,430.00 398.37,420.00" fill="#1a6785" />
<polygon points="450.33,430.00 450.33,450.00 433.01,460.00 415.69,450.00 415.69,430.00 433.01,420.00" fill="#1a6785" />
<polygon points="484.97,430.00 484.97,450.00 467.65,460.00 450.33,450.00 450.33,430.00 467.65,420.00" fill="#1a6685" />
<polygon points="519.62,430.00 519.62,450.00 502.29,460.00 484.97,450.00 484.97,430.00 502.29,420.00" fill="#1a6785" />
<polygon points="554.26,430.00 554.26,450.00 536.94,460.00 519.62,450.00 519.62,430.00 536.94,420.00" fill="#1b6785" />
<polygon points="588.90,430.00 588.90,450.00 571.58,460.00 554.26,450.00 554.26,430.00 571.58,420.00" fill="#1a6785" />
<polygon points="623.54,430.00 623.54,450.00 606.22,460.00 588.90,450.00 588.90,430.00 606.22,420.00" fill="#1a6785" />
<polygon points="658.18,430.00 658.18,450.00 640.86,460.00 623.54,450.00 623.54,430.00 640.86,420.00" fill="#1a6785" />
<polygon points="692.82,430.00 692.82,450.00 675.50,460.00 658.18,450.00 658.18,430.00 675.50,420.00" fill="#1a6785" />
<polygon points="727.46,430.00 727.46,450.00 710.14,460.00 692.82,450.00 692.82,430.00 710.14,420.00" fill="#1b6886" />
<polygon points="762.10,430.00 762.10,450.00 744.78,460.00 727.46,450.00 727.46,430.00 744.78,420.00" fill="#1a6785" />
<polygon points="796.74,430.00 796.74,450.00 779.42,460.00 762.10,450.00 762.10,430.00 779.42,420.00" fill="#1a6685" />
<polygon points="831.38,430.00 831.38,450.00 814.06,460.00 796.74,450.00 796.74,430.00 814.06,420.00" fill="#1b6685" />
<polygon points="866.03,430.00 866.03,450.00 848.70,460.00 831.38,450.00 831.38,430.00 848.70,420.00" fill="#1b6685" />
<polygon points="900.67,430.00 900.67,450.00 883.35,460.00 866.03,450.00 866.03,430.00 883.35,420.00" fill="#1a6685" />
<polygon points="935.31,430.00 935.31,450.00 917.99,460.00 900.67,450.00 900.67,430.00 917.99,420.00" fill="#000000" />
<polygon points="51.96,460.00 51.96,480.00 34.64,490.00 17.32,480.00 17.32,460.00 34.64,450.00" fill="#3c6085" />
<polygon points="86.60,460.00 86.60,480.00 69.28,490.00 51.96,480.00 51.96,460.00 69.28,450.00" fill="#1a6785" />
<polygon points="121.24,460.00 121.24,480.00 103.92,490.00 86.60,480.00 86.60,460.00 103.92,450.00" fill="#1b6684" />
<polygon points="155.88,460.00 155.88,480.00 138.56,490.00 121.24,480.00 121.24,460.00 138.56,450.00" fill="#1b6785" />
<polygon points="190.53,460.00 190.53,480.00 173.21,490.00 155.88,480.00 155.88,460.00 173.21,450.00" fill="#1b6784" />
<polygon points="225.17,460.00 225.17,480.00 207.85,490.00 190.53,480.00 190.53,460.00 207.85,450.00" fill="#1b6785" />
<polygon points="259.81,460.00 259.81,480.00 242.49,490.00 225.17,480.00 225.17,460.00 242.49,450.00" fill="#1b6886" />
<polygon points="294.45,460.00 294.45,480.00 277.13,490.00 259.81,480.00 259.81,460.00 277.13,450.00" fill="#1a6785" />
<polygon points="329.09,460.00 329.09,480.00 311.77,490.00 294.45,480.00 294.45,460.00 311.77,450.00" fill="#1a6785" />
<polygon points="363.73,460.00 363.73,480.00 346.41,490.00 329.09,480.00 329.09,460.00 346.41,450.00" fill="#1a6685" />
<polygon points="398.37,460.00 398.37,480.00 381.05,490.00 363.73,480.00 363.73,460.00 381.05,450.00" fill="#1b6685" />
<polygon points="433.01,460.00 433.01,480.00 415.69,490.00 398.37,480.00 398.37,460.00 415.69,450.00" fill="#1a6685" />
<polygon points="467.65,460.00 467.65,480.00 450.33,490.00 433.01,480.00 433.01,460.00 450.33,450.00" fill="#1a6685" />
<polygon points="502.29,460.00 502.29,480.00 484.97,490.00 467.65,480.00 467.65,460.00 484.97,450.00" fill="#1a6685" />
<polygon points="536.94,460.00 536.94,480.00 519.62,490.00 502.29,480.00 502.29,460.00 519.62,450.00" fill="#1b6786" />
<polygon points="571.58,460.00 571.58,480.00 554.26,490.00 536.94,480.00 536.94,460.00 554.26,450.00" fill="#1b6785" />
<polygon points="606.22,460.00 606.22,480.00 588.90,490.00 571.58,480.00 571.58,460.00 588.90,450.00" fill="#1a6785" />
<polygon points="640.86,460.00 640.86,480.00 623.54,490.00 606.22,480.00 606.22,460.00 623.54,450.00" fill="#1a6785" />
<polygon points="675.50,460.00 675.50,480.00 658.18,490.00 640.86,480.00 640.86,460.00 658.18,450.00" fill="#1a6685" />
<polygon points="710.14,460.00 710.14,480.00 692.82,490.00 675.50,480.00 675.50,460.00 692.82,450.00" fill="#1a6785" />
<polygon points="744.78,460.00 744.78,480.00 727.46,490.00 710.14,480.00 710.14,460.00 727.46,450.00" fill="#1b6886" />
<polygon points="779.42,460.00 779.42,480.00 762.10,490.00 744.78,480.00 744.78,460.00 762.10,450.00" fill="#1a6785" />
<polygon points="814.06,460.00 814.06,480.00 796.74,490.00 779.42,480.00 779.42,460.00 796.74,450.00" fill="#1b6785" />
<polygon points="848.70,460.00 848.70,480.00 831.38,490.00 814.06,480.00 814.06,460.00 831.38,450.00" fill="#1a6684" />
<polygon points="883.35,460.00 883.35,480.00 866.03,490.00 848.70,480.00 848.70,460.00 866.03,450.00" fill="#1b6784" />
<polygon points="917.99,460.00 917.99,480.00 900.67,490.00 883.35,480.00 883.35,460.00 900.67,450.00" fill="#1a6685" />
<polygon points="34.64,490.00 34.64,510.00 17.32,520.00 -0.00,510.00 0.00,490.00 17.32,480.00" fill="#356185" />
<polygon points="69.28,490.00 69.28,510.00 51.96,520.00 34.64,510.00 34.64,490.00 51.96,480.00" fill="#1a6785" />
<polygon points="103.92,490.00 103.92,510.00 86.60,520.00 69.28,510.00 69.28,490.00 86.60,480.00" fill="#1a6785" />
<polygon points="138.56,490.00 138.56,510.00 121.24,520.00 103.92,510.00 103.92,490.00 121.24,480.00" fill="#1b6785" />
<polygon points="173.21,490.00 173.21,510.00 155.88,520.00 138.56,510.00 138.56,490.00 155.88,480.00" fill="#1b6785" />
<polygon points="207.85,490.00 207.85,510.00 190.53,520.00 173.21,510.00 173.21,490.00 190.53,480.00" fill="#1b6684" />
<polygon points="242.49,490.00 242.49,510.00 225.17,520.00 207.85,510.00 207.85,490.00 225.17,480.00" fill="#1a6785" />
<polygon points="277.13,490.00 277.13,510.00 259.81,520.00 242.49,510.00 242.49,490.00 259.81,480.00" fill="#1a6685" />
<polygon points="311.77,490.00 311.77,510.00 294.45,520.00 277.13,510.00 277.13,490.00 294.45,480.00" fill="#1b6785" />
<polygon points="346.41,490.00 346.41,510.00 329.09,520.00 311.77,510.00 311.77,490.00 329.09,480.00" fill="#1b6685" />
<polygon points="381.05,490.00 381.05,510.00 363.73,520.00 346.41,510.00 346.41,490.00 363.73,480.00" fill="#1b6685" />
<polygon points="415.69,490.00 415.69,510.00 398.37,520.00 381.05,510.00 381.05,490.00 398.37,480.00" fill="#1b6685" />
<polygon points="450.33,490.00 450.33,510.00 433.01,520.00 415.69,510.00 415.69,490.00 433.01,480.00" fill="#1a6785" />
<polygon points="484.97,490.00 484.97,510.00 467.65,520.00 450.33,510.00 450.33,490.00 467.65,480.00" fill="#1a6685" />
<polygon points="519.62,490.00 519.62,510.00 502.29,520.00 484.97,510.00 484.97,490.00 502.29,480.00" fill="#1b6785" />
<polygon points="554.26,490.00 554.26,510.00 536.94,520.00 519.62,510.00 519.62,490.00 536.94,480.00" fill="#1b6886" />
<polygon points="588.90,490.00 588.90,510.00 571.58,520.00 554.26,510.00 554.26,490.00 571.58,480.00" fill="#1b6886" />
<polygon points="623.54,490.00 623.54,510.00 606.22,520.00 588.90,510.00 588.90,490.00 606.22,480.00" fill="#1b6886" />
<polygon points="658.18,490.00 658.18,510.00 640.86,520.00 623.54,510.00 623.54,490.00 640.86,480.00" fill="#1b6785" />
<polygon points="692.82,490.00 692.82,510.00 675.50,520.00 658.18,510.00 658.18,490.00 675.50,480.00" fill="#1a6785" />
<polygon points="727.46,490.00 727.46,510.00 710.14,520.00 692.82,510.00 692.82,490.00 710.14,480.00" fill="#1a6785" />
<polygon points="762.10,490.00 762.10,510.00 744.78,520.00 727.46,510.00 727.46,490.00 744.78,480.00" fill="#1b6785" />
<polygon points="796.74,490.00 796.74,510.00 779.42,520.00 762.10,510.00 762.10,490.00 779.42,480.00" fill="#1b6886" />
<polygon points="831.38,490.00 831.38,510.00 814.06,520.00 796.74,510.00 796.74,490.00 814.06,480.00" fill="#1a6685" />
<polygon points="866.03,490.00 866.03,510.00 848.70,520.00 831.38,510.00 831.38,490.00 848.70,480.00" fill="#1a6685" />
<polygon points="900.67,490.00 900.67,510.00 883.35,520.00 866.03,510.00 866.03,490.00 883.35,480.00" fill="#1b6684" />
<polygon points="935.31,490.00 935.31,510.00 917.99,520.00 900.67,510.00 900.67,490.00 917.99,480.00" fill="#000000" />
</svg>